<svg width="32" height="26" viewBox="0 0 32 26" fill="none" xmlns="http://www.w3.org/2000/svg">
<path d="M16.0096 22.9751C16.0096 23.5388 15.6839 24.051 15.1742 24.29C14.9771 24.3832 14.7659 24.4283 14.5561 24.4283C14.2239 24.4283 13.8947 24.3141 13.6288 24.0936L5.68439 17.5105H1.45317C0.650745 17.5112 0 16.8601 0 16.0577V10.268C0 9.46528 0.650745 8.81453 1.45317 8.81453H5.68473L13.6292 2.23142C14.0632 1.87165 14.6651 1.79495 15.1745 2.03571C15.6839 2.27475 16.01 2.78723 16.01 3.35061L16.0096 22.9751ZM21.5943 20.7044C21.5588 20.7068 21.5248 20.7082 21.4897 20.7082C21.1059 20.7082 20.7358 20.5565 20.4623 20.2827L20.268 20.0877C19.7583 19.579 19.6984 18.7731 20.1277 18.1946C21.2159 16.7273 21.7903 14.988 21.7903 13.1634C21.7903 11.2008 21.1382 9.36003 19.9041 7.83979C19.4343 7.26196 19.4776 6.42273 20.0042 5.8965L20.1982 5.70217C20.4885 5.41188 20.8775 5.25366 21.2985 5.27877C21.7085 5.29941 22.0913 5.49236 22.3513 5.81017C24.0631 7.9048 24.9673 10.4479 24.9673 13.1637C24.9673 15.6931 24.1677 18.1007 22.6543 20.1252C22.4015 20.4626 22.0149 20.6745 21.5943 20.7044ZM27.6023 25.1953C27.3395 25.5059 26.9595 25.6923 26.5526 25.7095C26.5326 25.7102 26.5124 25.7109 26.4917 25.7109C26.1068 25.7109 25.7374 25.5588 25.464 25.2854L25.2731 25.0945C24.7397 24.5614 24.7035 23.7087 25.1885 23.1316C27.5321 20.3443 28.8233 16.8044 28.8233 13.1634C28.8233 9.37619 27.441 5.73037 24.9319 2.89764C24.4232 2.32256 24.449 1.45203 24.9904 0.908601L25.1809 0.717711C25.4637 0.433612 25.831 0.277117 26.2523 0.290531C26.6523 0.301881 27.0307 0.478669 27.2965 0.777901C30.3295 4.19259 32 8.59165 32 13.1634C32.0007 17.5621 30.4388 21.8353 27.6023 25.1953Z" fill="black"/>
</svg>
