<svg width="1921" height="1280" viewBox="0 0 1921 1280" fill="none" xmlns="http://www.w3.org/2000/svg">
<g clip-path="url(#clip0)">
<path d="M0.984375 1279.93L1920.98 1279.93L1920.98 0L0.984375 0L0.984375 1279.93Z" fill="#FF0B53"/>
<path d="M1144.25 1279.93C1144.25 1279.93 1000.99 735.464 1416.31 577.168C1831.64 418.873 1760.7 0 1760.7 0H1920.98V1279.93H1144.25Z" fill="#FD9644"/>
<path d="M777.863 0C777.863 0 921.077 544.466 505.801 702.761C90.5251 861.057 161.396 1279.93 161.396 1279.93H1.1123V0H777.863Z" fill="#59B2EF"/>
<path d="M888.905 1279.93C888.905 1279.93 996.972 934.141 1277.75 897.551C1558.53 860.961 1658.83 689.082 1681.48 645.133C1704.13 601.183 1786.17 411.545 1920.95 407.242V1279.93H888.905Z" fill="#FDBD47"/>
<path d="M1512.19 678.843C1531.17 678.843 1546.55 663.456 1546.55 644.477C1546.55 625.497 1531.17 610.11 1512.19 610.11C1493.21 610.11 1477.82 625.497 1477.82 644.477C1477.82 663.456 1493.21 678.843 1512.19 678.843Z" stroke="#FA8231" stroke-width="4" stroke-linecap="round" stroke-linejoin="round"/>
<path d="M1021.19 602.783C1040.17 602.783 1055.56 587.397 1055.56 568.417C1055.56 549.437 1040.17 534.051 1021.19 534.051C1002.21 534.051 986.829 549.437 986.829 568.417C986.829 587.397 1002.21 602.783 1021.19 602.783Z" stroke="#BF085B" stroke-width="4" stroke-linecap="round" stroke-linejoin="round"/>
<path d="M1831.22 833.506C1850.2 833.506 1865.58 818.12 1865.58 799.14C1865.58 780.16 1850.2 764.774 1831.22 764.774C1812.24 764.774 1796.86 780.16 1796.86 799.14C1796.86 818.12 1812.24 833.506 1831.22 833.506Z" stroke="#FDA14D" stroke-width="4" stroke-linecap="round" stroke-linejoin="round"/>
<path d="M1334.29 865.073C1353.27 865.073 1368.65 849.686 1368.65 830.706C1368.65 811.726 1353.27 796.34 1334.29 796.34C1315.31 796.34 1299.93 811.726 1299.93 830.706C1299.93 849.686 1315.31 865.073 1334.29 865.073Z" stroke="#FA8231" stroke-width="4" stroke-linecap="round" stroke-linejoin="round"/>
<path d="M1559.64 222.004C1578.62 222.004 1594 206.618 1594 187.638C1594 168.658 1578.62 153.272 1559.64 153.272C1540.66 153.272 1525.27 168.658 1525.27 187.638C1525.27 206.618 1540.66 222.004 1559.64 222.004Z" stroke="#BF085B" stroke-width="4" stroke-linecap="round" stroke-linejoin="round"/>
<path d="M1102.37 817.139C1117.76 817.139 1130.23 804.661 1130.23 789.269C1130.23 773.876 1117.76 761.398 1102.37 761.398C1086.98 761.398 1074.5 773.876 1074.5 789.269C1074.5 804.661 1086.98 817.139 1102.37 817.139Z" stroke="#BF085B" stroke-width="4" stroke-linecap="round" stroke-linejoin="round"/>
<path d="M1773.26 994.745C1788.65 994.745 1801.13 982.267 1801.13 966.875C1801.13 951.483 1788.65 939.004 1773.26 939.004C1757.87 939.004 1745.39 951.483 1745.39 966.875C1745.39 982.267 1757.87 994.745 1773.26 994.745Z" stroke="#FDA14D" stroke-width="4" stroke-linecap="round" stroke-linejoin="round"/>
<path d="M1475.3 484.085C1490.69 484.085 1503.16 471.607 1503.16 456.215C1503.16 440.822 1490.69 428.344 1475.3 428.344C1459.9 428.344 1447.43 440.822 1447.43 456.215C1447.43 471.607 1459.9 484.085 1475.3 484.085Z" stroke="#BF085B" stroke-width="4" stroke-linecap="round" stroke-linejoin="round"/>
<path d="M1685.56 73.004C1700.95 73.004 1713.43 60.5259 1713.43 45.1335C1713.43 29.7411 1700.95 17.263 1685.56 17.263C1670.17 17.263 1657.69 29.7411 1657.69 45.1335C1657.69 60.5259 1670.17 73.004 1685.56 73.004Z" stroke="#BF085B" stroke-width="4" stroke-linecap="round" stroke-linejoin="round"/>
<path d="M1466.87 1094.74C1482.26 1094.74 1494.74 1082.26 1494.74 1066.87C1494.74 1051.48 1482.26 1039 1466.87 1039C1451.48 1039 1439 1051.48 1439 1066.87C1439 1082.26 1451.48 1094.74 1466.87 1094.74Z" stroke="#FDA14D" stroke-width="4" stroke-linecap="round" stroke-linejoin="round"/>
<path d="M1223.94 469.958C1223.94 472.676 1223.13 475.333 1221.62 477.594C1220.11 479.854 1217.96 481.615 1215.45 482.655C1212.94 483.695 1210.18 483.968 1207.51 483.437C1204.85 482.907 1202.4 481.598 1200.48 479.676C1198.55 477.754 1197.25 475.305 1196.72 472.639C1196.18 469.973 1196.46 467.21 1197.5 464.699C1198.54 462.188 1200.3 460.041 1202.56 458.531C1204.82 457.021 1207.48 456.215 1210.19 456.215C1213.84 456.215 1217.33 457.663 1219.91 460.24C1222.49 462.818 1223.94 466.313 1223.94 469.958Z" stroke="#BF085B" stroke-width="4" stroke-linecap="round" stroke-linejoin="round"/>
<path d="M1867.57 571.057C1875.16 571.057 1881.31 564.904 1881.31 557.313C1881.31 549.723 1875.16 543.57 1867.57 543.57C1859.98 543.57 1853.83 549.723 1853.83 557.313C1853.83 564.904 1859.98 571.057 1867.57 571.057Z" stroke="#FDA14D" stroke-width="4" stroke-linecap="round" stroke-linejoin="round"/>
<path d="M1771.42 701.033C1779.01 701.033 1785.16 694.88 1785.16 687.29C1785.16 679.7 1779.01 673.547 1771.42 673.547C1763.83 673.547 1757.68 679.7 1757.68 687.29C1757.68 694.88 1763.83 701.033 1771.42 701.033Z" stroke="#FDA14D" stroke-width="4" stroke-linecap="round" stroke-linejoin="round"/>
<path d="M1452.06 61.6224C1453.59 54.1891 1448.81 46.9186 1441.38 45.3833C1433.95 43.848 1426.68 48.6293 1425.14 56.0625C1423.61 63.4958 1428.39 70.7663 1435.82 72.3016C1443.25 73.8369 1450.52 69.0556 1452.06 61.6224Z" stroke="#BF085B" stroke-width="4" stroke-linecap="round" stroke-linejoin="round"/>
<path d="M1559.64 336.99C1567.23 336.99 1573.38 330.836 1573.38 323.246C1573.38 315.656 1567.23 309.503 1559.64 309.503C1552.05 309.503 1545.9 315.656 1545.9 323.246C1545.9 330.836 1552.05 336.99 1559.64 336.99Z" stroke="#BF085B" stroke-width="4" stroke-linecap="round" stroke-linejoin="round"/>
<path d="M1108.33 97.9785C1109.55 90.4868 1104.47 83.4255 1096.98 82.2068C1089.49 80.988 1082.43 86.0733 1081.21 93.565C1079.99 101.057 1085.07 108.118 1092.56 109.337C1100.06 110.555 1107.12 105.47 1108.33 97.9785Z" stroke="#BF085B" stroke-width="4" stroke-linecap="round" stroke-linejoin="round"/>
<path d="M902.217 1096.83C904.186 1089.49 899.839 1081.96 892.509 1079.99C885.179 1078.02 877.641 1082.37 875.673 1089.7C873.705 1097.03 878.052 1104.57 885.382 1106.53C892.712 1108.5 900.249 1104.16 902.217 1096.83Z" stroke="#BF085B" stroke-width="4" stroke-linecap="round" stroke-linejoin="round"/>
<path d="M1426.04 976.58C1431.41 971.213 1431.41 962.511 1426.04 957.144C1420.68 951.777 1411.98 951.777 1406.61 957.144C1401.24 962.511 1401.24 971.213 1406.61 976.58C1411.98 981.947 1420.68 981.947 1426.04 976.58Z" stroke="#FDA14D" stroke-width="4" stroke-linecap="round" stroke-linejoin="round"/>
<path d="M1249.38 1161.96C1256.6 1159.63 1260.56 1151.88 1258.23 1144.66C1255.89 1137.44 1248.14 1133.48 1240.92 1135.81C1233.7 1138.15 1229.74 1145.89 1232.07 1153.12C1234.41 1160.34 1242.16 1164.3 1249.38 1161.96Z" stroke="#FDA14D" stroke-width="4" stroke-linecap="round" stroke-linejoin="round"/>
<path d="M1600.67 1114.21C1602.25 1106.79 1597.51 1099.49 1590.09 1097.91C1582.67 1096.33 1575.37 1101.07 1573.79 1108.49C1572.21 1115.92 1576.95 1123.22 1584.37 1124.8C1591.8 1126.38 1599.09 1121.64 1600.67 1114.21Z" stroke="#FDA14D" stroke-width="4" stroke-linecap="round" stroke-linejoin="round"/>
<path d="M609.528 -71C609.528 -71 529.538 185.146 321.468 212.296C113.398 239.447 39.1837 366.736 22.4018 399.278C5.61992 431.82 -55.1565 572.261 -155 575.508V-71H609.528Z" fill="#4B52D1"/>
</g>
<defs>
<clipPath id="clip0">
<rect width="1921" height="1280" fill="white"/>
</clipPath>
</defs>
</svg>
