<svg id="BACKGROUND" xmlns="http://www.w3.org/2000/svg" xmlns:xlink="http://www.w3.org/1999/xlink" viewBox="0 0 1200.15 819.42"><defs><style>.cls-1,.cls-10,.cls-8,.cls-9{fill:none;}.cls-2{fill:#ff0b53;}.cls-3{fill:#fd9644;}.cls-4{fill:#59b2ef;}.cls-5{fill:#fdbd47;}.cls-6{fill:#4b52d1;}.cls-7{clip-path:url(#clip-path);}.cls-8{stroke:#fa8231;}.cls-10,.cls-8,.cls-9{stroke-linecap:round;stroke-linejoin:round;stroke-width:4px;}.cls-9{stroke:#bf085b;}.cls-10{stroke:#fda14d;}</style><clipPath id="clip-path" transform="translate(0.07)"><rect class="cls-1" width="1200" height="800"/></clipPath></defs><rect class="cls-2" x="-0.07" width="1200.15" height="800" transform="translate(1200.07 800) rotate(180)"/><path class="cls-3" d="M714.55,800S625,459.69,884.61,360.75,1099.88,0,1099.88,0h100.19V800Z" transform="translate(0.07)"/><path class="cls-4" d="M485.53,0s89.52,340.31-170.06,439.25S100.19,800,100.19,800H0V0Z" transform="translate(0.07)"/><path class="cls-5" d="M554.94,800S622.49,583.87,798,561s238.2-130.3,252.36-157.77,65.44-146,149.69-148.69V800Z" transform="translate(0.07)"/><path class="cls-6" d="M477.89,0s-50,160.1-180.06,177.07S121.38,273.6,110.89,293.94,62.41,402.06,0,404.09V0Z" transform="translate(0.07)"/><g class="cls-7"><circle class="cls-8" cx="944.61" cy="402.82" r="21.48"/><circle class="cls-9" cx="637.7" cy="355.28" r="21.48"/><circle class="cls-10" cx="1144.03" cy="499.49" r="21.48"/><circle class="cls-8" cx="833.41" cy="519.22" r="21.48"/><circle class="cls-9" cx="974.27" cy="117.28" r="21.48"/><circle class="cls-9" cx="688.44" cy="493.32" r="17.42"/><circle class="cls-10" cx="1107.8" cy="604.33" r="17.42"/><circle class="cls-9" cx="921.55" cy="285.15" r="17.42"/><circle class="cls-9" cx="1052.98" cy="28.21" r="17.42"/><circle class="cls-10" cx="862" cy="800" r="17.42"/><path class="cls-9" d="M764.36,293.74a8.59,8.59,0,1,1-8.59-8.59A8.59,8.59,0,0,1,764.36,293.74Z" transform="translate(0.07)"/><circle class="cls-10" cx="1166.75" cy="348.34" r="8.59"/><circle class="cls-10" cx="1106.65" cy="429.58" r="8.59"/><circle class="cls-9" cx="898.59" cy="36.8" r="8.59" transform="translate(680.81 909.35) rotate(-78.33)"/><circle class="cls-9" cx="974.27" cy="202.04" r="8.59"/><circle class="cls-9" cx="683.94" cy="36.8" r="8.59" transform="translate(537.85 705.95) rotate(-80.76)"/><circle class="cls-9" cx="554.94" cy="683.28" r="8.59" transform="translate(-248.78 1042.09) rotate(-74.97)"/><circle class="cls-10" cx="884.61" cy="604.33" r="8.59" transform="translate(-168.15 802.51) rotate(-45)"/><circle class="cls-10" cx="777.64" cy="718.05" r="8.59" transform="translate(-183.16 274.15) rotate(-17.92)"/><circle class="cls-10" cx="991.45" cy="694.64" r="8.59" transform="translate(105.78 1519.84) rotate(-77.99)"/></g></svg>