<svg width="191" height="191" viewBox="0 0 191 191" fill="none" xmlns="http://www.w3.org/2000/svg">
<g clip-path="url(#clip0)">
<path d="M99.1367 83.4083C91.7646 81.0876 83.8784 85.1974 81.5577 92.5695C79.2369 99.9416 83.3467 107.828 90.7188 110.148C98.0909 112.469 105.977 108.359 108.298 100.987C110.619 93.6152 106.509 85.7291 99.1367 83.4083ZM92.048 105.926C87.0036 104.338 84.1919 98.9426 85.7798 93.8986C87.139 89.5811 91.288 86.9019 95.6182 87.2144L92.1521 98.2249L99.8927 100.662L101.222 96.4395L97.7034 95.3319L99.8404 88.5436C103.569 90.7679 105.435 95.3406 104.076 99.6582C102.488 104.702 97.0923 107.514 92.048 105.926Z" fill="white" fill-opacity="0.75"/>
<path d="M120.795 80.9451L123.008 73.9141L119.281 63.1504L124.62 46.1901L118.104 30.5266L120.166 23.9778L115.944 22.6487L113.882 29.1975L99.5687 38.3039L94.2295 55.2645L85.0087 61.9522L82.7954 68.9829L78.5733 67.6537L64.8389 111.282L69.061 112.612L53.6874 161.447L57.9095 162.777L59.1057 158.977L88.6606 168.281L87.4644 172.081L91.6865 173.41L107.06 124.574L111.282 125.903L125.017 82.2742L120.795 80.9451ZM114.718 33.9117L118.398 42.7569L106.636 39.0541L114.718 33.9117ZM102.884 42.5136L119.491 47.7416L115.504 60.4079L98.8966 55.18L102.884 42.5136ZM88.7913 64.6765L96.5187 59.072L115.223 64.9601L118.346 73.9804L116.572 79.6158L87.0172 70.3119L88.7913 64.6765ZM89.9897 164.058L60.4348 154.755L66.1944 136.459L95.7493 145.763L89.9897 164.058ZM97.0784 141.54L67.5236 132.237L73.2831 113.941L102.838 123.245L97.0784 141.54ZM118.136 89.3893L114.055 88.1045L112.726 92.3266L116.807 93.6115L111.048 111.907L106.966 110.623L105.637 114.845L109.718 116.129L108.389 120.352L70.3901 108.389L71.7193 104.167L75.8007 105.452L77.1298 101.23L73.0484 99.9451L78.808 81.6493L82.8894 82.9341L84.2185 78.712L80.1371 77.4271L81.4663 73.205L119.465 85.1672L118.136 89.3893Z" fill="white" fill-opacity="0.75"/>
<path d="M172.794 60.9638C172.659 60.9213 172.524 60.8814 172.387 60.8442C171.305 55.6546 167.518 51.4138 162.373 49.7943C158.412 48.5473 154.223 49.0055 150.664 51.0332C150.074 50.72 149.456 50.4614 148.815 50.2596C144.03 48.7531 138.844 50.7538 136.228 54.8691C132.265 54.4052 128.394 56.8061 127.152 60.7493C125.748 65.2115 128.235 69.9845 132.697 71.3892L166.193 81.9337C171.974 83.7537 178.158 80.5309 179.979 74.7494C181.799 68.9679 178.576 62.7838 172.794 60.9638ZM167.522 77.7115L134.026 67.1671C131.892 66.4952 130.703 64.2126 131.375 62.0784C132.046 59.9443 134.329 58.7547 136.463 59.4265C136.523 59.4453 136.581 59.4661 136.64 59.4873L138.638 60.2152L139.445 58.2468C140.727 55.1195 144.259 53.4657 147.487 54.4818C148.165 54.6954 148.801 55.0163 149.378 55.4354L150.663 56.3706L151.96 55.4508C154.624 53.5608 157.935 53.038 161.044 54.0167C165.025 55.27 167.846 58.7662 168.23 62.9235L168.396 64.7244L170.195 64.9199C170.625 64.9667 171.053 65.0562 171.465 65.1859C174.919 66.273 176.844 69.9668 175.756 73.4203C174.669 76.8737 170.975 78.7987 167.522 77.7115Z" fill="white" fill-opacity="0.75"/>
<path d="M62.0951 51.4934C61.8738 46.9379 58.8225 42.8741 54.3631 41.4702C51.3246 40.5137 48.0729 40.9122 45.3831 42.5157C44.89 42.254 44.3751 42.0384 43.8422 41.8707C38.9533 40.3316 33.7236 43.057 32.1846 47.946C30.6455 52.8349 33.3709 58.0646 38.2599 59.6036L56.1617 65.2391C60.1195 66.4851 64.3529 64.2789 65.5988 60.321C66.6871 56.864 65.1411 53.1966 62.0951 51.4934ZM57.4908 61.017L39.589 55.3815C37.0281 54.5753 35.6005 51.8359 36.4067 49.2751C37.2129 46.7142 39.9522 45.2866 42.5131 46.0928C43.0673 46.2673 43.5876 46.5446 44.06 46.917L45.4558 48.0172L46.8315 46.892C48.5742 45.4668 50.8928 45.0183 53.034 45.6923C56.0376 46.6379 57.9767 49.5921 57.645 52.7172L57.447 54.5816L59.2539 55.0833C59.2954 55.0948 59.3369 55.1054 59.3884 55.1179C60.995 55.6453 61.8861 57.3746 61.377 58.992C60.8636 60.6216 59.1206 61.53 57.4908 61.017Z" fill="white" fill-opacity="0.75"/>
<path d="M85.8594 26.3266C85.4597 26.2008 85.0519 26.1067 84.6382 26.0451C83.5028 23.662 81.431 21.8388 78.8642 21.0308C75.0654 19.8349 70.9574 21.1398 68.5211 24.1539C65.5298 23.9464 62.6673 25.8015 61.7283 28.7845C60.6289 32.2768 62.5758 36.0122 66.0678 37.1114L80.9859 41.8077C85.2539 43.1513 89.8196 40.7722 91.1632 36.5039C92.5069 32.2356 90.1274 27.6702 85.8594 26.3266ZM82.3151 37.5856L67.3969 32.8893C66.2327 32.5228 65.5839 31.2779 65.9504 30.1137C66.3127 28.9627 67.534 28.3154 68.6868 28.6552C68.723 28.669 68.7592 28.6826 68.7962 28.6958L70.5621 29.3148L71.4662 27.6764C72.6468 25.5369 75.1991 24.5175 77.5351 25.2529C79.2006 25.7772 80.4791 27.0964 80.9552 28.7816L81.4384 30.4917L83.2123 30.3897C83.6683 30.3633 84.112 30.417 84.5306 30.5488C86.4708 31.1596 87.5522 33.2346 86.9414 35.1748C86.3306 37.1151 84.2553 38.1964 82.3151 37.5856Z" fill="white" fill-opacity="0.75"/>
<path d="M100.231 65.1906L96.0088 63.8615L94.6797 68.0836L98.9018 69.4127L100.231 65.1906Z" fill="white" fill-opacity="0.75"/>
<path d="M112.897 69.178L104.453 66.5197L103.124 70.7419L111.568 73.4001L112.897 69.178Z" fill="white" fill-opacity="0.75"/>
<path d="M73.6196 142.354L69.3975 141.025L65.6759 152.847L69.898 154.176L73.6196 142.354Z" fill="white" fill-opacity="0.75"/>
<path d="M82.0639 145.012L77.8418 143.683L74.1202 155.505L78.3423 156.834L82.0639 145.012Z" fill="white" fill-opacity="0.75"/>
<path d="M90.5083 147.671L86.2861 146.341L82.5646 158.163L86.7867 159.492L90.5083 147.671Z" fill="white" fill-opacity="0.75"/>
<path d="M80.7085 119.836L76.4863 118.507L72.7648 130.329L76.9869 131.658L80.7085 119.836Z" fill="white" fill-opacity="0.75"/>
<path d="M89.1528 122.494L84.9307 121.165L81.2091 132.987L85.4312 134.316L89.1528 122.494Z" fill="white" fill-opacity="0.75"/>
<path d="M97.5971 125.152L93.375 123.823L89.6534 135.645L93.8756 136.974L97.5971 125.152Z" fill="white" fill-opacity="0.75"/>
<path d="M156.318 64.9032L152.096 63.5741L150.767 67.7962L154.989 69.1254L156.318 64.9032Z" fill="white" fill-opacity="0.75"/>
<path d="M170.673 69.4224L160.54 66.2325L159.211 70.4546L169.344 73.6445L170.673 69.4224Z" fill="white" fill-opacity="0.75"/>
<path d="M147.873 62.245L143.651 60.9159L142.322 65.138L146.544 66.4671L147.873 62.245Z" fill="white" fill-opacity="0.75"/>
<path d="M53.9282 50.6145L49.7061 49.2853L48.3769 53.5075L52.599 54.8366L53.9282 50.6145Z" fill="white" fill-opacity="0.75"/>
<path d="M114.08 50.6789L105.636 48.0206L104.307 52.2427L112.751 54.901L114.08 50.6789Z" fill="white" fill-opacity="0.75"/>
</g>
<defs>
<clipPath id="clip0">
<rect width="151.088" height="151.088" fill="white" transform="translate(45.9971 0.629456) rotate(17.4741)"/>
</clipPath>
</defs>
</svg>
