<svg width="179" height="179" viewBox="0 0 179 179" fill="none" xmlns="http://www.w3.org/2000/svg">
<path d="M131.453 148.234H123.062V125.859C123.062 125.118 122.768 124.406 122.243 123.882C121.719 123.357 121.007 123.063 120.266 123.062H114.672V69.9219C114.672 69.1801 114.377 68.4687 113.853 67.9442C113.328 67.4197 112.617 67.125 111.875 67.125H109.078V53.1406C109.078 52.3988 108.783 51.6875 108.259 51.1629C107.734 50.6384 107.023 50.3438 106.281 50.3438H103.484V41.9531C103.484 41.2113 103.19 40.5 102.665 39.9754C102.141 39.4509 101.429 39.1563 100.688 39.1562V33.5625C100.687 32.8207 100.393 32.1093 99.8683 31.5848C99.3438 31.0603 98.6324 30.7656 97.8906 30.7656V27.9688C97.8906 27.5345 97.7895 27.1062 97.5953 26.7178L94.7984 21.1241C94.5661 20.6595 94.2091 20.2688 93.7672 19.9958C93.3254 19.7227 92.8163 19.5781 92.2969 19.5781V8.39062H86.7031V19.5781C86.1837 19.5781 85.6746 19.7227 85.2328 19.9958C84.7909 20.2688 84.4339 20.6595 84.2016 21.1241L81.4047 26.7178C81.2105 27.1062 81.1094 27.5345 81.1094 27.9688V30.7656C80.3676 30.7656 79.6562 31.0603 79.1317 31.5848C78.6072 32.1093 78.3125 32.8207 78.3125 33.5625V39.1562C77.5707 39.1563 76.8593 39.4509 76.3348 39.9754C75.8103 40.5 75.5156 41.2113 75.5156 41.9531V50.3438H72.7188C71.977 50.3438 71.2656 50.6384 70.7411 51.1629C70.2166 51.6875 69.9219 52.3988 69.9219 53.1406V67.125H67.125C66.3832 67.125 65.6718 67.4197 65.1473 67.9442C64.6228 68.4687 64.3281 69.1801 64.3281 69.9219V123.062H58.7344C57.9926 123.063 57.2812 123.357 56.7567 123.882C56.2322 124.406 55.9375 125.118 55.9375 125.859V148.234H47.5469C46.8051 148.234 46.0937 148.529 45.5692 149.054C45.0447 149.578 44.75 150.289 44.75 151.031V170.609C44.75 171.351 45.0447 172.063 45.5692 172.587C46.0937 173.112 46.8051 173.406 47.5469 173.406H131.453C132.195 173.406 132.906 173.112 133.431 172.587C133.955 172.063 134.25 171.351 134.25 170.609V151.031C134.25 150.289 133.955 149.578 133.431 149.054C132.906 148.529 132.195 148.234 131.453 148.234ZM117.469 128.656V137.047H114.672V128.656H117.469ZM109.078 137.047H106.281V78.3125H100.688V137.047H97.8906V72.7188H109.078V137.047ZM97.8906 67.125V55.9375H103.484V67.125H97.8906ZM86.7031 28.629L88.4317 25.1719H90.5683L92.2969 28.629V30.7656H86.7031V28.629ZM83.9062 36.3594H95.0938V39.1562H83.9062V36.3594ZM81.1094 44.75H97.8906V50.3438H95.0938C94.352 50.3438 93.6406 50.6384 93.1161 51.1629C92.5916 51.6875 92.2969 52.3988 92.2969 53.1406V123.062H86.7031V53.1406C86.7031 52.3988 86.4084 51.6875 85.8839 51.1629C85.3594 50.6384 84.648 50.3438 83.9062 50.3438H81.1094V44.75ZM75.5156 55.9375H81.1094V67.125H75.5156V55.9375ZM69.9219 72.7188H81.1094V137.047H78.3125V78.3125H72.7188V137.047H69.9219V72.7188ZM61.5312 128.656H64.3281V137.047H61.5312V128.656ZM50.3438 153.828H55.9375V167.812H50.3438V153.828ZM61.5312 142.641H81.1094V167.812H78.3125V148.234H72.7188V167.812H69.9219V148.234H64.3281V167.812H61.5312V142.641ZM86.7031 128.656H92.2969V167.812H86.7031V128.656ZM97.8906 142.641H117.469V167.812H114.672V148.234H109.078V167.812H106.281V148.234H100.688V167.812H97.8906V142.641ZM128.656 167.812H123.062V153.828H128.656V167.812Z" fill="white" fill-opacity="0.75"/>
</svg>
