<svg width="196" height="196" viewBox="0 0 196 196" fill="none" xmlns="http://www.w3.org/2000/svg">
<g clip-path="url(#clip0)">
<path d="M167.694 168.892L156.153 153.616L159.827 148.962C160.623 147.953 160.534 146.506 159.619 145.602L140.079 126.293C139.505 125.725 138.693 125.466 137.896 125.597L136.899 125.761L131.929 95.4488C131.749 94.3548 131.481 93.2978 131.139 92.2792L138.343 88.7946C139.5 88.2356 140.128 86.9065 139.718 85.6894C139.222 84.2179 137.573 83.5577 136.222 84.212L128.941 87.7337C128.662 87.3043 128.368 86.8861 128.059 86.4813L137.179 77.5128C138.173 76.5352 138.186 74.9364 137.209 73.9423C136.231 72.9482 134.633 72.9344 133.638 73.9125L124.517 82.8819C123.651 82.1975 122.728 81.5886 121.761 81.0527L127.657 66.2501C128.174 64.9548 127.542 63.4861 126.246 62.9702C124.951 62.4542 123.482 63.0856 122.966 64.3812L117.073 79.1744C115.205 78.6864 113.247 78.4635 111.247 78.539L108.133 59.5481C107.909 58.1838 106.662 57.1665 105.292 57.3495C103.874 57.5386 102.903 58.8594 103.133 60.2611L106.264 79.3565C104.345 79.9233 102.56 80.7604 100.946 81.8198L90.6367 69.6834C89.7334 68.6209 88.1405 68.4912 87.0779 69.3939C86.015 70.2967 85.8856 71.8899 86.7881 72.9528L97.1038 85.0966C96.3588 85.9126 95.6782 86.785 95.0758 87.7101L83.568 82.1237C82.3131 81.5149 80.8034 82.0381 80.1941 83.2924C79.585 84.5471 80.1086 86.0574 81.3629 86.6663L92.8696 92.2522C92.7054 92.7347 92.561 93.2244 92.4338 93.7207L84.4096 92.7089C82.9996 92.5314 81.7164 93.5513 81.5804 94.975C81.4488 96.3512 82.5116 97.5588 83.8831 97.7316L91.8024 98.7299C91.8036 99.8044 91.8871 100.892 92.0665 101.986L96.38 128.28L91.1108 126.895L64.9674 72.4624L62.4521 57.1248L67.061 56.369C68.4368 56.1434 69.3695 54.8447 69.1439 53.4689L67.8365 45.497C67.6109 44.1212 66.3122 43.1885 64.9364 43.4141L61.7221 43.9413L60.8874 25.8335C60.8497 25.0167 60.4565 24.238 59.7759 23.7847C58.72 23.0807 57.3599 23.2647 56.5287 24.1419L52.8386 28.0381L49.2927 21.6311C48.9007 20.9232 48.2167 20.3985 47.4156 20.2819C46.165 20.0994 45.0174 20.8491 44.6427 21.9943L41.7725 30.7687L35.9484 27.5833C35.218 27.1836 34.3298 27.1206 33.5811 27.4853C32.4245 28.0485 31.899 29.3399 32.2604 30.5094L37.6372 47.8917L34.0442 48.481C32.6683 48.7066 31.7356 50.0053 31.9613 51.3811L33.2687 59.3536C33.4943 60.7294 34.793 61.6621 36.1688 61.4365L40.7776 60.6807L42.0328 68.3347C42.9136 73.7056 47.684 77.4845 52.9903 77.2701L62.6948 110.597C63.0846 111.935 64.486 112.705 65.8248 112.315C67.1636 111.925 67.9331 110.523 67.5429 109.185L58.0332 76.5268L61.0781 76.0275L86.4965 128.951L77.8091 144.44L70.9163 120.77C70.5264 119.431 69.125 118.662 67.7863 119.052C66.4475 119.442 65.6783 120.843 66.0681 122.182L74.3473 150.612L68.9254 160.28C68.3438 161.317 68.5644 162.619 69.455 163.406L82.5484 174.985L84.0059 183.872C84.2315 185.248 85.5302 186.181 86.906 185.955L112.629 181.737C112.63 181.736 112.631 181.736 112.631 181.736C112.632 181.736 112.633 181.736 112.634 181.736L166.131 172.963C167.191 172.789 168.047 171.956 168.219 170.848C168.327 170.156 168.116 169.451 167.694 168.892ZM42.0165 36.6576C42.6748 37.0177 43.46 37.0659 44.1576 36.79C44.8555 36.5133 45.3942 35.9412 45.6278 35.2272L47.6406 29.0729L50.0919 33.5012C50.482 34.2054 51.1846 34.6817 51.9828 34.7833C52.7811 34.8849 53.5802 34.5994 54.134 34.0146L56.1141 31.9241L56.7059 44.7649L42.6681 47.067L38.9251 34.9671L42.0165 36.6576ZM59.6351 71.1471L53.4761 72.1572C50.4158 72.659 47.5177 70.5778 47.0158 67.5175L45.7606 59.8635L57.4697 57.9433L59.6351 71.1471ZM42.4523 55.2894L37.8432 56.0452L37.3529 53.0557L63.2626 48.8066L63.7529 51.7962L59.1441 52.552L42.4523 55.2894ZM109.547 83.7703C116.667 82.6027 123.456 86.6288 126.046 93.0586C121.763 89.7436 116.172 88.141 110.418 89.0846C104.665 90.0282 99.8781 93.3326 96.8784 97.842C97.2787 90.9211 102.427 84.9379 109.547 83.7703ZM100.599 122.804C104.934 126.349 110.708 128.095 116.656 127.12C118.032 126.894 118.965 125.595 118.739 124.219C118.513 122.844 117.215 121.911 115.839 122.137C107.903 123.438 100.376 118.289 98.6196 110.548C97.8116 102.652 103.3 95.3686 111.236 94.0672C119.474 92.7162 127.275 98.3157 128.633 106.551L131.917 126.578L106.04 130.822L101.728 129.688L100.599 122.804ZM110.556 176.959L88.5803 180.563L87.522 174.11L97.4454 155.093C98.0903 153.857 97.611 152.332 96.375 151.686C95.1387 151.042 93.614 151.52 92.9685 152.757L84.1491 169.659L74.326 160.972L90.5873 131.979L102.215 135.037L99.0424 141.118C98.3976 142.354 98.8769 143.879 100.113 144.524C100.617 144.787 101.167 144.863 101.687 144.778C102.445 144.653 103.137 144.187 103.519 143.454L107.571 135.687L133.789 131.388L110.556 176.959ZM116.741 175.945L138.986 132.311L154.464 147.606L146.12 158.177C145.255 159.271 145.443 160.859 146.537 161.723C147.117 162.18 147.835 162.343 148.51 162.233C149.11 162.134 149.677 161.82 150.083 161.306L152.919 157.713L161.187 168.656L116.741 175.945L116.741 175.945Z" fill="white" fill-opacity="0.75"/>
<path d="M122.706 101.101L112.864 100.434C112.475 100.408 112.086 100.472 111.727 100.621L102.612 104.396C101.324 104.93 100.712 106.407 101.246 107.695C101.779 108.983 103.255 109.595 104.545 109.062L110.717 106.505L111.329 110.234C111.554 111.61 112.853 112.543 114.229 112.317C115.605 112.091 116.537 110.793 116.312 109.417L115.7 105.688L122.366 106.139C122.564 106.153 122.759 106.143 122.947 106.112C124.078 105.926 124.975 104.984 125.055 103.791C125.149 102.399 124.097 101.195 122.706 101.101Z" fill="white" fill-opacity="0.75"/>
</g>
<defs>
<clipPath id="clip0">
<rect width="170" height="170" fill="white" transform="translate(0.364258 27.8763) rotate(-9.31333)"/>
</clipPath>
</defs>
</svg>
