<svg width="163" height="163" viewBox="0 0 163 163" fill="none" xmlns="http://www.w3.org/2000/svg">
<g clip-path="url(#clip0)">
<path d="M36.7949 91.7273L40.4734 90.3313L42.5674 95.849L38.8889 97.245L36.7949 91.7273Z" fill="white" fill-opacity="0.75"/>
<path d="M44.1514 88.9353L47.8298 87.5393L49.9238 93.057L46.2453 94.453L44.1514 88.9353Z" fill="white" fill-opacity="0.75"/>
<path d="M43.0771 108.28L46.7556 106.884L48.8496 112.402L45.1711 113.798L43.0771 108.28Z" fill="white" fill-opacity="0.75"/>
<path d="M50.4336 105.488L54.1121 104.092L56.206 109.61L52.5276 111.006L50.4336 105.488Z" fill="white" fill-opacity="0.75"/>
<path d="M49.3584 124.833L53.0369 123.437L55.1308 128.955L51.4524 130.351L49.3584 124.833Z" fill="white" fill-opacity="0.75"/>
<path d="M56.7158 122.041L60.3943 120.645L62.4883 126.163L58.8098 127.559L56.7158 122.041Z" fill="white" fill-opacity="0.75"/>
<path d="M148.488 97.734L146.649 98.432L118.73 24.8628L118.337 24.227L111.426 16.7069L110.165 13.3841C109.98 12.8963 109.609 12.502 109.133 12.288C108.657 12.074 108.116 12.0578 107.628 12.2429C107.14 12.428 106.746 12.7993 106.532 13.2751C106.318 13.751 106.302 14.2923 106.487 14.7801L107.748 18.1029L107.665 22.76L100.804 16.4393L99.573 13.1956C99.3879 12.7078 99.0166 12.3135 98.5408 12.0995C98.0649 11.8855 97.5236 11.8693 97.0358 12.0544C96.548 12.2395 96.1537 12.6108 95.9397 13.0866C95.7257 13.5625 95.7094 14.1038 95.8945 14.5916L97.1255 17.8353L96.1857 27.1164L93.0338 23.6868L91.7728 20.364C91.5877 19.8762 91.2164 19.482 90.7406 19.2679C90.2648 19.0539 89.7234 19.0377 89.2356 19.2228C88.7478 19.4079 88.3535 19.7792 88.1395 20.2551C87.9255 20.7309 87.9093 21.2722 88.0944 21.76L89.3554 25.0828L89.1736 35.2947L89.3019 36.0306L93.4898 47.066L76.9367 53.348L76.2387 51.5087C76.0536 51.0209 75.6823 50.6266 75.2065 50.4126C74.7307 50.1986 74.1893 50.1824 73.7015 50.3675L66.3446 53.1595C65.8568 53.3446 65.4625 53.7159 65.2485 54.1917C65.0345 54.6675 65.0182 55.2089 65.2034 55.6967L65.9013 57.5359L49.3483 63.8178L45.1603 52.7825L44.7681 52.1467L37.8569 44.6266L36.5959 41.3038C36.4108 40.816 36.0395 40.4217 35.5636 40.2077C35.0878 39.9937 34.5465 39.9775 34.0587 40.1626C33.5709 40.3477 33.1766 40.719 32.9626 41.1948C32.7486 41.6707 32.7323 42.212 32.9174 42.6998L34.1784 46.0226L34.0955 50.6797L27.2348 44.359L26.0038 41.1153C25.8186 40.6275 25.4473 40.2332 24.9715 40.0192C24.4957 39.8052 23.9543 39.789 23.4665 39.9741C22.9787 40.1592 22.5845 40.5305 22.3704 41.0063C22.1564 41.4822 22.1402 42.0235 22.3253 42.5113L23.5563 45.755L22.6164 55.0361L19.4646 51.6065L18.2036 48.2837C18.0185 47.7959 17.6472 47.4017 17.1713 47.1876C16.6955 46.9736 16.1542 46.9574 15.6664 47.1425C15.1786 47.3276 14.7843 47.6989 14.5703 48.1748C14.3562 48.6506 14.34 49.1919 14.5251 49.6797L15.7861 53.0025L15.6043 63.2144L15.7326 63.9503L43.6523 137.52L41.8131 138.218C41.3253 138.403 40.931 138.774 40.717 139.25C40.503 139.726 40.4867 140.267 40.6718 140.755L46.2558 155.469C46.4409 155.956 46.8122 156.351 47.288 156.565C47.7639 156.779 48.3052 156.795 48.793 156.61L81.8992 144.046C82.387 143.861 82.7812 143.49 82.9953 143.014C83.2093 142.538 83.2255 141.997 83.0404 141.509L80.831 135.687L97.9544 125.363L117.616 121.727L119.825 127.549C120.01 128.037 120.381 128.431 120.857 128.645C121.333 128.859 121.874 128.875 122.362 128.69L155.468 116.126C155.956 115.941 156.35 115.57 156.565 115.094C156.779 114.618 156.795 114.077 156.61 113.589L151.026 98.8753C150.841 98.3875 150.469 97.9932 149.993 97.7792C149.518 97.5651 148.976 97.5489 148.488 97.734ZM142.971 99.828L120.9 108.204L116.014 95.3293L138.085 86.9534L142.971 99.828ZM136.689 83.2749L114.618 91.6508L109.732 78.7762L131.803 70.4003L136.689 83.2749ZM130.407 66.7218L108.336 75.0977L103.45 62.2231L125.521 53.8472L130.407 66.7218ZM53.5362 74.8532L97.6778 58.1014L98.3758 59.9406L54.2342 76.6925L53.5362 74.8532ZM102.054 58.5447L97.8663 47.5093L101.545 46.1133L103.639 51.631C103.824 52.1188 104.195 52.5131 104.671 52.7271C105.147 52.9411 105.688 52.9573 106.176 52.7722L117.211 48.5843C117.699 48.3991 118.093 48.0278 118.307 47.552C118.521 47.0762 118.538 46.5348 118.353 46.047L116.259 40.5293L119.937 39.1334L124.125 50.1687L102.054 58.5447ZM105.223 44.7173L112.58 41.9253L113.976 45.6038L106.619 48.3958L105.223 44.7173ZM104.964 40.6076L105.576 34.559L110.048 38.6781L104.964 40.6076ZM118.541 35.4549L114.863 36.8509L113.467 33.1724L117.145 31.7764L118.541 35.4549ZM112.071 29.494L111.507 28.0085L111.601 22.7125L115.185 26.6126L115.749 28.098L112.071 29.494ZM99.8039 30.4373L100.69 21.6844L107.161 27.6453L108.925 32.2944L105.349 28.9997C104.252 27.9897 102.209 28.7653 102.058 30.2484L101.568 35.0864L99.8039 30.4373ZM93.1146 34.9885L93.2088 29.6924L96.7931 33.5925L97.3568 35.0779L93.6783 36.4739L93.1146 34.9885ZM98.7528 38.7564L100.149 42.4348L96.4703 43.8308L95.0743 40.1523L98.7528 38.7564ZM96.2818 54.4229L88.9249 57.2149L87.5289 53.5365L94.8858 50.7445L96.2818 54.4229ZM69.5798 56.1399L73.2583 54.7439L73.9563 56.5832L70.2778 57.9792L69.5798 56.1399ZM69.8346 62.3556L77.1915 59.5636C77.6793 59.3785 78.0736 59.0072 78.2876 58.5314C78.5016 58.0556 78.5178 57.5142 78.3327 57.0264L83.8504 54.9324L85.2464 58.6109L63.1756 66.9868L61.7796 63.3083L67.2973 61.2144C67.4824 61.7022 67.8538 62.0964 68.3296 62.3105C68.8054 62.5245 69.3468 62.5407 69.8346 62.3556ZM58.1012 64.7043L59.4972 68.3828L52.1402 71.1748L50.7442 67.4963L58.1012 64.7043ZM44.9718 63.3746L41.2933 64.7706L39.8974 61.0921L43.5758 59.6961L44.9718 63.3746ZM31.6539 72.637L39.0109 69.845L40.4069 73.5235L33.0499 76.3155L31.6539 72.637ZM31.3944 68.5273L32.0071 62.4787L36.4785 66.5978L31.3944 68.5273ZM38.5014 57.4137L37.9377 55.9282L38.0319 50.6322L41.6161 54.5323L42.1798 56.0177L38.5014 57.4137ZM26.2346 58.357L27.1211 49.6041L33.5916 55.565L35.3559 60.2141L31.7795 56.9194C30.6831 55.9094 28.6395 56.685 28.4891 58.1681L27.999 63.0061L26.2346 58.357ZM19.5453 62.9082L19.6396 57.6121L23.2238 61.5122L23.7875 62.9976L20.1091 64.3936L19.5453 62.9082ZM25.1835 66.6761L26.5795 70.3545L22.901 71.7505L21.505 68.072L25.1835 66.6761ZM24.297 75.429L27.9755 74.033L30.0695 79.5507C30.2546 80.0385 30.6259 80.4327 31.1017 80.6468C31.5775 80.8608 32.1189 80.877 32.6067 80.6919L43.6421 76.504C44.1299 76.3188 44.5241 75.9475 44.7382 75.4717C44.9522 74.9959 44.9684 74.4545 44.7833 73.9667L42.6893 68.449L46.3678 67.0531L50.5557 78.0884L28.485 86.4644L24.297 75.429ZM29.881 90.1428L51.9517 81.7669L56.8377 94.6415L34.7669 103.017L29.881 90.1428ZM36.1629 106.696L58.2337 98.32L63.1196 111.195L41.0488 119.571L36.1629 106.696ZM42.4448 123.249L64.5156 114.873L69.4015 127.748L47.3308 136.124L42.4448 123.249ZM78.6639 141.066L49.2362 152.233L45.0483 141.198L74.476 130.03L78.6639 141.066ZM96.2293 121.809L79.4121 131.948L78.1545 128.634L96.5431 121.656C96.4341 121.697 96.329 121.748 96.2293 121.809ZM73.08 126.352L55.6302 80.3709L99.7717 63.6191L117.222 109.6L73.08 126.352ZM96.8868 121.559C96.7721 121.58 96.6595 121.612 96.5504 121.653L114.939 114.674L116.197 117.988L96.8868 121.559ZM152.233 113.146L122.805 124.314L118.618 113.278L148.045 102.11L152.233 113.146Z" fill="white" fill-opacity="0.75"/>
<path d="M110.364 63.8076L114.043 62.4116L116.137 67.9293L112.458 69.3253L110.364 63.8076Z" fill="white" fill-opacity="0.75"/>
<path d="M117.721 61.0156L121.399 59.6196L123.493 65.1373L119.815 66.5333L117.721 61.0156Z" fill="white" fill-opacity="0.75"/>
<path d="M116.646 80.3607L120.325 78.9647L122.419 84.4824L118.74 85.8783L116.646 80.3607Z" fill="white" fill-opacity="0.75"/>
<path d="M124.003 77.5687L127.681 76.1727L129.775 81.6904L126.097 83.0864L124.003 77.5687Z" fill="white" fill-opacity="0.75"/>
<path d="M122.928 96.9137L126.606 95.5178L128.7 101.035L125.022 102.431L122.928 96.9137Z" fill="white" fill-opacity="0.75"/>
<path d="M130.285 94.1218L133.964 92.7258L136.058 98.2435L132.379 99.6395L130.285 94.1218Z" fill="white" fill-opacity="0.75"/>
<path d="M49.4248 141.641L53.1033 140.245L54.4993 143.924L50.8208 145.32L49.4248 141.641Z" fill="white" fill-opacity="0.75"/>
<path d="M58.6211 138.151L62.2996 136.755L63.6955 140.434L60.0171 141.83L58.6211 138.151Z" fill="white" fill-opacity="0.75"/>
<path d="M67.8174 134.661L71.4958 133.265L72.8918 136.944L69.2134 138.34L67.8174 134.661Z" fill="white" fill-opacity="0.75"/>
<path d="M122.994 113.722L126.673 112.326L128.069 116.004L124.39 117.4L122.994 113.722Z" fill="white" fill-opacity="0.75"/>
<path d="M132.19 110.232L135.869 108.836L137.265 112.514L133.586 113.91L132.19 110.232Z" fill="white" fill-opacity="0.75"/>
<path d="M141.387 106.742L145.065 105.346L146.461 109.024L142.783 110.42L141.387 106.742Z" fill="white" fill-opacity="0.75"/>
</g>
<defs>
<clipPath id="clip0">
<rect width="125.902" height="125.902" fill="white" transform="translate(0 44.6715) rotate(-20.7819)"/>
</clipPath>
</defs>
</svg>
